<svg width="366" height="91" viewBox="0 0 366 91" fill="none" xmlns="http://www.w3.org/2000/svg">
<rect width="366" height="91" rx="13" fill="url(#paint0_linear_101_6)"/>
<path d="M83.5028 57H79.0028L87.196 33.7273H92.4006L100.605 57H96.1051L89.8892 38.5H89.7074L83.5028 57ZM83.6506 47.875H95.9233V51.2614H83.6506V47.875ZM103.489 57V39.5455H110.818C112.886 39.5455 114.519 39.9583 115.716 40.7841C116.92 41.6098 117.523 42.7614 117.523 44.2386C117.523 45.2159 117.182 46.0152 116.5 46.6364C115.826 47.25 114.905 47.6629 113.739 47.875C114.655 47.9508 115.458 48.1818 116.148 48.5682C116.845 48.9545 117.39 49.4621 117.784 50.0909C118.178 50.7197 118.375 51.4432 118.375 52.2614C118.375 53.2235 118.121 54.0606 117.614 54.7727C117.114 55.4773 116.383 56.0265 115.42 56.4205C114.466 56.8068 113.307 57 111.943 57H103.489ZM107.341 53.7614H111.943C112.701 53.7614 113.295 53.5833 113.727 53.2273C114.159 52.8636 114.375 52.3712 114.375 51.75C114.375 51.0303 114.159 50.4659 113.727 50.0568C113.295 49.6402 112.701 49.4318 111.943 49.4318H107.341V53.7614ZM107.341 46.7727H110.898C111.458 46.7727 111.939 46.6932 112.341 46.5341C112.742 46.3674 113.049 46.1364 113.261 45.8409C113.473 45.5379 113.58 45.178 113.58 44.7614C113.58 44.1629 113.333 43.6932 112.841 43.3523C112.356 43.0114 111.682 42.8409 110.818 42.8409H107.341V46.7727ZM120.815 42.9205V39.5455H136.088V42.9205H130.44V57H126.463V42.9205H120.815ZM146.259 57.3409C144.554 57.3409 143.077 56.9659 141.827 56.2159C140.577 55.4659 139.607 54.4167 138.918 53.0682C138.236 51.7197 137.895 50.1439 137.895 48.3409C137.895 46.5379 138.236 44.9583 138.918 43.6023C139.607 42.2462 140.577 41.1932 141.827 40.4432C143.077 39.6932 144.554 39.3182 146.259 39.3182C147.963 39.3182 149.44 39.6932 150.69 40.4432C151.94 41.1932 152.906 42.2462 153.588 43.6023C154.277 44.9583 154.622 46.5379 154.622 48.3409C154.622 50.1439 154.277 51.7197 153.588 53.0682C152.906 54.4167 151.94 55.4659 150.69 56.2159C149.44 56.9659 147.963 57.3409 146.259 57.3409ZM146.281 54.0455C147.205 54.0455 147.978 53.7917 148.599 53.2841C149.221 52.7689 149.683 52.0795 149.986 51.2159C150.296 50.3523 150.452 49.3902 150.452 48.3295C150.452 47.2614 150.296 46.2955 149.986 45.4318C149.683 44.5606 149.221 43.8674 148.599 43.3523C147.978 42.8371 147.205 42.5795 146.281 42.5795C145.334 42.5795 144.546 42.8371 143.918 43.3523C143.296 43.8674 142.83 44.5606 142.52 45.4318C142.217 46.2955 142.065 47.2614 142.065 48.3295C142.065 49.3902 142.217 50.3523 142.52 51.2159C142.83 52.0795 143.296 52.7689 143.918 53.2841C144.546 53.7917 145.334 54.0455 146.281 54.0455ZM158.114 63.5455V39.5455H162.159V42.4318H162.398C162.61 42.0076 162.909 41.5568 163.295 41.0795C163.682 40.5947 164.205 40.1818 164.864 39.8409C165.523 39.4924 166.364 39.3182 167.386 39.3182C168.735 39.3182 169.951 39.6629 171.034 40.3523C172.125 41.0341 172.989 42.0455 173.625 43.3864C174.269 44.7197 174.591 46.3561 174.591 48.2955C174.591 50.2121 174.277 51.8409 173.648 53.1818C173.019 54.5227 172.163 55.5455 171.08 56.25C169.996 56.9545 168.769 57.3068 167.398 57.3068C166.398 57.3068 165.568 57.1402 164.909 56.8068C164.25 56.4735 163.72 56.072 163.318 55.6023C162.924 55.125 162.617 54.6742 162.398 54.25H162.227V63.5455H158.114ZM162.148 48.2727C162.148 49.4015 162.307 50.3902 162.625 51.2386C162.951 52.0871 163.417 52.75 164.023 53.2273C164.636 53.697 165.379 53.9318 166.25 53.9318C167.159 53.9318 167.92 53.6894 168.534 53.2045C169.148 52.7121 169.61 52.0417 169.92 51.1932C170.239 50.3371 170.398 49.3636 170.398 48.2727C170.398 47.1894 170.242 46.2273 169.932 45.3864C169.621 44.5455 169.159 43.8864 168.545 43.4091C167.932 42.9318 167.167 42.6932 166.25 42.6932C165.371 42.6932 164.625 42.9242 164.011 43.3864C163.398 43.8485 162.932 44.4962 162.614 45.3295C162.303 46.1629 162.148 47.1439 162.148 48.2727ZM182.08 51.4318L189.068 39.5455H193.295V57H189.318V45.1023L182.352 57H178.114V39.5455H182.08V51.4318ZM196.554 52.2159H200.634C200.671 52.8674 200.963 53.3712 201.509 53.7273C202.054 54.0833 202.762 54.2614 203.634 54.2614C204.52 54.2614 205.266 54.0682 205.872 53.6818C206.486 53.2879 206.793 52.6932 206.793 51.8977C206.793 51.428 206.675 51.0152 206.44 50.6591C206.205 50.2955 205.876 50.0152 205.452 49.8182C205.027 49.6212 204.527 49.5227 203.952 49.5227H201.281V46.6023H203.952C204.808 46.6023 205.455 46.4053 205.895 46.0114C206.342 45.6174 206.565 45.1212 206.565 44.5227C206.565 43.8788 206.33 43.3561 205.861 42.9545C205.399 42.553 204.759 42.3523 203.94 42.3523C203.122 42.3523 202.44 42.5379 201.895 42.9091C201.357 43.2803 201.077 43.7576 201.054 44.3409H196.997C197.012 43.3258 197.315 42.4432 197.906 41.6932C198.505 40.9432 199.308 40.3598 200.315 39.9432C201.33 39.5265 202.474 39.3182 203.747 39.3182C205.111 39.3182 206.289 39.5227 207.281 39.9318C208.274 40.3409 209.039 40.9129 209.577 41.6477C210.115 42.375 210.384 43.2311 210.384 44.2159C210.384 45.1629 210.088 45.947 209.497 46.5682C208.906 47.1818 208.111 47.6212 207.111 47.8864V48.0682C207.8 48.1061 208.421 48.303 208.974 48.6591C209.527 49.0076 209.967 49.4811 210.293 50.0795C210.618 50.678 210.781 51.3712 210.781 52.1591C210.781 53.2273 210.474 54.1515 209.861 54.9318C209.247 55.7045 208.402 56.2992 207.327 56.7159C206.259 57.1326 205.035 57.3409 203.656 57.3409C202.315 57.3409 201.115 57.1402 200.054 56.7386C199.001 56.3295 198.164 55.7424 197.543 54.9773C196.921 54.2121 196.592 53.2917 196.554 52.2159ZM219.043 57.3523C217.937 57.3523 216.94 57.1553 216.054 56.7614C215.175 56.3598 214.478 55.7689 213.963 54.9886C213.455 54.2083 213.202 53.2462 213.202 52.1023C213.202 51.1174 213.384 50.303 213.747 49.6591C214.111 49.0152 214.607 48.5 215.236 48.1136C215.865 47.7273 216.573 47.4356 217.361 47.2386C218.156 47.0341 218.978 46.8864 219.827 46.7955C220.849 46.6894 221.679 46.5947 222.315 46.5114C222.952 46.4205 223.414 46.2841 223.702 46.1023C223.997 45.9129 224.145 45.6212 224.145 45.2273V45.1591C224.145 44.303 223.891 43.6402 223.384 43.1705C222.876 42.7008 222.145 42.4659 221.19 42.4659C220.183 42.4659 219.384 42.6856 218.793 43.125C218.209 43.5644 217.815 44.0833 217.611 44.6818L213.77 44.1364C214.073 43.0758 214.573 42.1894 215.27 41.4773C215.967 40.7576 216.819 40.2197 217.827 39.8636C218.834 39.5 219.948 39.3182 221.168 39.3182C222.009 39.3182 222.846 39.4167 223.679 39.6136C224.512 39.8106 225.274 40.1364 225.963 40.5909C226.652 41.0379 227.205 41.6477 227.622 42.4205C228.046 43.1932 228.259 44.1591 228.259 45.3182V57H224.304V54.6023H224.168C223.918 55.0871 223.565 55.5417 223.111 55.9659C222.664 56.3826 222.099 56.7197 221.418 56.9773C220.743 57.2273 219.952 57.3523 219.043 57.3523ZM220.111 54.3295C220.937 54.3295 221.652 54.1667 222.259 53.8409C222.865 53.5076 223.33 53.0682 223.656 52.5227C223.99 51.9773 224.156 51.3826 224.156 50.7386V48.6818C224.027 48.7879 223.808 48.8864 223.497 48.9773C223.194 49.0682 222.853 49.1477 222.474 49.2159C222.096 49.2841 221.721 49.3447 221.349 49.3977C220.978 49.4508 220.656 49.4962 220.384 49.5341C219.77 49.6174 219.221 49.7538 218.736 49.9432C218.251 50.1326 217.868 50.3977 217.588 50.7386C217.308 51.072 217.168 51.5038 217.168 52.0341C217.168 52.7917 217.444 53.3636 217.997 53.75C218.55 54.1364 219.255 54.3295 220.111 54.3295ZM247.134 39.5455V53.9318H249.804V62.6136H245.781V57H232.395V39.5455H236.361V53.625H243.202V39.5455H247.134ZM257.142 51.4318L264.131 39.5455H268.358V57H264.381V45.1023L257.415 57H253.176V39.5455H257.142V51.4318ZM282.901 57V42.8864H279.173C278.226 42.8864 277.499 43.1061 276.991 43.5455C276.484 43.9848 276.234 44.5303 276.241 45.1818C276.234 45.8333 276.473 46.3712 276.957 46.7955C277.442 47.2197 278.135 47.4318 279.037 47.4318H284.196V50.4318H279.037C277.643 50.4318 276.438 50.2121 275.423 49.7727C274.408 49.3333 273.628 48.7121 273.082 47.9091C272.537 47.1061 272.264 46.1667 272.264 45.0909C272.264 43.9697 272.541 42.9962 273.094 42.1705C273.654 41.3371 274.45 40.6932 275.48 40.2386C276.518 39.7765 277.749 39.5455 279.173 39.5455H286.753V57H282.901ZM271.628 57L276.503 48.0455H280.56L275.673 57H271.628Z" fill="white"/>
<defs>
<linearGradient id="paint0_linear_101_6" x1="189" y1="12.5" x2="53" y2="175.5" gradientUnits="userSpaceOnUse">
<stop stop-color="#FF9900"/>
<stop offset="1" stop-color="#FFE485"/>
</linearGradient>
</defs>
</svg>
